<?xml version="1.0" encoding="iso-8859-1"?>
<!-- Uploaded to: SVG Repo, www.svgrepo.com, Generator: SVG Repo Mixer Tools -->
<svg height="800px" width="800px" version="1.1" id="Layer_1" xmlns="http://www.w3.org/2000/svg" xmlns:xlink="http://www.w3.org/1999/xlink" 
	 viewBox="0 0 503.607 503.607" xml:space="preserve">
<g transform="translate(1 1)">
	<path style="fill:#FFDD09;" d="M99.721,418.672v58.754c0,9.233,7.554,16.787,16.787,16.787h83.934
		c9.233,0,16.787-7.554,16.787-16.787v-58.754H99.721z"/>
	<path style="fill:#FFFFFF;" d="M99.721,475.747v-65.469h-25.18v65.469c0,10.072,7.554,18.466,16.787,18.466h25.18
		C107.275,494.213,99.721,485.82,99.721,475.747"/>
	<g>
		<path style="fill:#FFDD09;" d="M192.049,418.672v58.754c0,9.233,7.554,16.787,16.787,16.787h83.934
			c9.233,0,16.787-7.554,16.787-16.787v-58.754H192.049z"/>
		<path style="fill:#FFDD09;" d="M284.377,418.672v58.754c0,9.233,7.554,16.787,16.787,16.787h83.934
			c9.233,0,16.787-7.554,16.787-16.787v-58.754H284.377z"/>
	</g>
	<path style="fill:#FD9808;" d="M401.885,418.672v58.754c0,9.233-7.554,16.787-16.787,16.787h25.18
		c9.233,0,16.787-7.554,16.787-16.787v-58.754H401.885z"/>
	<g>
		<path style="fill:#FFDD09;" d="M267.59,40.967h-33.574V22.502c0-8.393,6.715-15.108,15.108-15.108h3.357
			c8.393,0,15.108,6.715,15.108,15.108L267.59,40.967L267.59,40.967z"/>
		<path style="fill:#FFDD09;" d="M150.082,57.754h-33.574V39.289c0-8.393,6.715-15.108,15.108-15.108h3.357
			c8.393,0,15.108,6.715,15.108,15.108V57.754z"/>
		<path style="fill:#FFDD09;" d="M385.098,57.754h-33.574V39.289c0-8.393,6.715-15.108,15.108-15.108h3.357
			c8.393,0,15.108,6.715,15.108,15.108V57.754z"/>
		<path style="fill:#FFDD09;" d="M217.229,116.508V74.541c0-9.233-7.554-16.787-16.787-16.787h-83.934
			c-9.233,0-16.787,7.554-16.787,16.787v41.967H217.229z"/>
	</g>
	<path style="fill:#FFFFFF;" d="M116.508,57.754h-25.18c-9.233,0-16.787,7.554-16.787,16.787v41.967h25.18V74.541
		C99.721,65.308,107.275,57.754,116.508,57.754"/>
	<g>
		<path style="fill:#FFDD09;" d="M309.557,116.508V57.754c0-9.233-7.554-16.787-16.787-16.787h-83.934
			c-9.233,0-16.787,7.554-16.787,16.787v58.754H309.557z"/>
		<path style="fill:#FFDD09;" d="M401.885,116.508V74.541c0-9.233-7.554-16.787-16.787-16.787h-83.934
			c-9.233,0-16.787,7.554-16.787,16.787v41.967H401.885z"/>
	</g>
	<path style="fill:#FD9808;" d="M410.279,57.754h-25.18c9.233,0,16.787,7.554,16.787,16.787v41.967h25.18V74.541
		C427.066,65.308,419.511,57.754,410.279,57.754"/>
	<path style="fill:#FCC309;" d="M91.328,116.508v58.754h85.613c19.305-20.984,45.325-33.574,73.862-33.574
		s54.557,12.59,73.862,33.574h85.613v-58.754H91.328z"/>
	<polygon style="fill:#FD9808;" points="410.279,175.262 435.459,175.262 435.459,116.508 410.279,116.508 	"/>
	<polygon style="fill:#FFFFFF;" points="66.148,175.262 91.328,175.262 91.328,116.508 66.148,116.508 	"/>
	<path style="fill:#FCC309;" d="M410.279,418.672v-58.754h-85.613c-19.305,20.984-45.325,33.574-73.862,33.574
		s-54.557-12.59-73.862-33.574H91.328v58.754H410.279z"/>
	<polygon style="fill:#FFFFFF;" points="66.148,418.672 91.328,418.672 91.328,359.918 66.148,359.918 	"/>
	<polygon style="fill:#FD9808;" points="410.279,418.672 435.459,418.672 435.459,359.918 410.279,359.918 	"/>
	<path style="fill:#FFDD09;" d="M124.902,267.59c0-36.931,15.948-69.666,40.289-92.328H99.721v184.656h65.469
		C140.849,337.256,124.902,304.521,124.902,267.59"/>
	<polygon style="fill:#FFFFFF;" points="74.541,359.918 99.721,359.918 99.721,175.262 74.541,175.262 	"/>
	<path style="fill:#FFDD09;" d="M376.705,267.59c0,36.931-15.948,69.666-40.289,92.328h65.469V175.262h-65.469
		C360.757,198.764,376.705,231.498,376.705,267.59"/>
	<polygon style="fill:#FD9808;" points="401.885,359.918 427.066,359.918 427.066,175.262 401.885,175.262 	"/>
	<path style="fill:#FFDD09;" d="M376.705,267.59c0-69.666-56.236-125.902-125.902-125.902S124.902,198.764,124.902,267.59
		s56.236,125.902,125.902,125.902S376.705,337.256,376.705,267.59"/>
	<path style="fill:#54C9FD;" d="M250.803,359.918c-51.2,0-92.328-41.128-92.328-92.328s41.128-92.328,92.328-92.328
		s92.328,41.967,92.328,92.328S302.003,359.918,250.803,359.918"/>
	<path d="M267.59,49.361h-33.574c-5.036,0-8.393-3.357-8.393-8.393V22.502C225.623,9.911,236.534-1,249.125-1h3.357
		c12.59,0,23.502,10.911,23.502,23.502v18.466C275.984,46.003,272.626,49.361,267.59,49.361z M242.41,32.574h16.787V22.502
		c0-3.357-3.357-6.715-6.715-6.715h-3.357c-3.357,0-6.715,3.357-6.715,6.715V32.574z"/>
	<path d="M150.082,66.148h-33.574c-5.036,0-8.393-3.357-8.393-8.393V39.289c0-12.59,10.911-23.502,23.502-23.502h3.357
		c12.59,0,23.502,10.911,23.502,23.502v18.466C158.475,62.79,155.118,66.148,150.082,66.148z M124.902,49.361h16.787V39.289
		c0-3.357-3.357-6.715-6.715-6.715h-3.357c-3.357,0-6.715,3.357-6.715,6.715V49.361z"/>
	<path d="M385.098,66.148h-33.574c-5.036,0-8.393-3.357-8.393-8.393V39.289c0-12.59,10.911-23.502,23.502-23.502h3.357
		c12.59,0,23.502,10.911,23.502,23.502v18.466C393.492,62.79,390.134,66.148,385.098,66.148z M359.918,49.361h16.787V39.289
		c0-3.357-3.357-6.715-6.715-6.715h-3.357c-3.357,0-6.715,3.357-6.715,6.715V49.361z"/>
	<path d="M250.803,401.885c-73.862,0-134.295-60.433-134.295-134.295s60.433-134.295,134.295-134.295
		s134.295,60.433,134.295,134.295S324.666,401.885,250.803,401.885z M250.803,150.082c-64.63,0-117.508,52.879-117.508,117.508
		s52.879,117.508,117.508,117.508S368.311,332.22,368.311,267.59S315.433,150.082,250.803,150.082z"/>
	<path d="M250.803,368.311c-55.397,0-100.721-45.325-100.721-100.721s45.325-100.721,100.721-100.721
		s100.721,45.325,100.721,100.721C351.525,323.826,306.2,368.311,250.803,368.311z M250.803,183.656
		c-46.164,0-83.934,37.77-83.934,83.934s37.77,83.934,83.934,83.934s83.934-37.77,83.934-83.934S296.967,183.656,250.803,183.656z"
		/>
	<path d="M192.049,124.902H74.541c-5.036,0-8.393-3.357-8.393-8.393V74.541c0-14.269,10.911-25.18,25.18-25.18h83.934
		c14.269,0,25.18,10.911,25.18,25.18v41.967C200.443,121.544,197.085,124.902,192.049,124.902z M82.934,108.115h100.721V74.541
		c0-5.036-3.357-8.393-8.393-8.393H91.328c-5.036,0-8.393,4.197-8.393,8.393V108.115z"/>
	<path d="M309.557,124.902H192.049c-5.036,0-8.393-3.357-8.393-8.393V57.754c0-14.269,10.911-25.18,25.18-25.18h83.934
		c14.269,0,25.18,10.911,25.18,25.18v58.754C317.951,121.544,314.593,124.902,309.557,124.902z M200.443,108.115h100.721V57.754
		c0-5.036-3.357-8.393-8.393-8.393h-83.934c-5.036,0-8.393,3.357-8.393,8.393V108.115z"/>
	<path d="M427.066,124.902H309.557c-5.036,0-8.393-3.357-8.393-8.393V74.541c0-14.269,10.911-25.18,25.18-25.18h83.934
		c14.269,0,25.18,10.911,25.18,25.18v41.967C435.459,121.544,432.102,124.902,427.066,124.902z M317.951,108.115h100.721V74.541
		c0-5.036-3.357-8.393-8.393-8.393h-83.934c-5.036,0-8.393,3.357-8.393,8.393V108.115z"/>
	<path d="M175.262,502.607H91.328c-14.269,0-25.18-10.911-25.18-25.18v-58.754c0-5.036,3.357-8.393,8.393-8.393h117.508
		c5.036,0,8.393,3.357,8.393,8.393v58.754C200.443,491.695,189.531,502.607,175.262,502.607z M82.934,427.066v50.361
		c0,5.036,3.357,8.393,8.393,8.393h83.934c5.036,0,8.393-3.357,8.393-8.393v-50.361H82.934z"/>
	<path d="M292.77,502.607h-83.934c-14.269,0-25.18-10.911-25.18-25.18v-58.754c0-5.036,3.357-8.393,8.393-8.393h117.508
		c5.036,0,8.393,3.357,8.393,8.393v58.754C317.951,491.695,307.039,502.607,292.77,502.607z M200.443,427.066v50.361
		c0,5.036,3.357,8.393,8.393,8.393h83.934c5.036,0,8.393-3.357,8.393-8.393v-50.361H200.443z"/>
	<path d="M410.279,502.607h-83.934c-14.269,0-25.18-10.911-25.18-25.18v-58.754c0-5.036,3.357-8.393,8.393-8.393h117.508
		c5.036,0,8.393,3.357,8.393,8.393v58.754C435.459,491.695,424.548,502.607,410.279,502.607z M317.951,427.066v50.361
		c0,5.036,3.357,8.393,8.393,8.393h83.934c5.036,0,8.393-3.357,8.393-8.393v-50.361H317.951z"/>
	<path d="M165.19,368.311H74.541c-5.036,0-8.393-3.357-8.393-8.393V175.262c0-5.036,3.357-8.393,8.393-8.393h90.649
		c3.357,0,6.715,2.518,7.554,5.036c0.839,2.518,0.839,6.715-2.518,9.233c-23.502,23.502-36.931,53.718-36.931,86.452
		s13.43,63.79,37.77,86.452c2.518,2.518,3.357,5.875,2.518,9.233C171.905,366.633,168.548,368.311,165.19,368.311z M82.934,351.525
		h62.951c-18.466-23.502-29.377-52.879-29.377-83.934c0-30.216,10.911-60.433,29.377-83.934H82.934V351.525z"/>
	<path d="M435.459,427.066H66.148c-5.036,0-8.393-3.357-8.393-8.393v-58.754c0-5.036,3.357-8.393,8.393-8.393h99.043
		c2.518,0,4.197,0.839,5.875,2.518c21.823,20.144,50.361,31.056,79.738,31.056s57.915-10.911,79.738-31.056
		c1.679-1.679,3.357-2.518,5.875-2.518h99.043c5.036,0,8.393,3.357,8.393,8.393v58.754
		C443.852,423.708,440.495,427.066,435.459,427.066z M74.541,410.279h352.525v-41.967h-87.292
		c-24.341,21.823-56.236,33.574-88.97,33.574s-63.79-11.751-88.97-33.574H74.541V410.279z"/>
	<path d="M427.066,368.311h-90.649c-3.357,0-6.715-2.518-7.554-5.036c-1.679-3.357-0.839-6.715,2.518-9.233
		c23.502-22.662,36.931-52.879,36.931-86.452c0-32.734-13.43-63.79-37.771-86.452c-2.518-2.518-3.357-5.875-2.518-9.233
		c0.839-3.357,4.197-5.036,7.554-5.036h91.488c5.036,0,8.393,3.357,8.393,8.393v184.656
		C435.459,364.954,432.102,368.311,427.066,368.311z M355.721,351.525h62.951V183.656h-62.951
		c19.305,23.502,29.377,53.718,29.377,83.934C385.098,298.646,374.187,328.023,355.721,351.525z"/>
	<path d="M435.459,183.656h-99.043c-2.518,0-4.197-0.839-5.875-2.518c-21.823-20.144-50.361-31.056-79.738-31.056
		s-57.915,10.911-79.738,31.056c-1.679,1.679-3.357,2.518-5.875,2.518H66.148c-5.036,0-8.393-3.357-8.393-8.393v-58.754
		c0-5.036,3.357-8.393,8.393-8.393h369.311c5.036,0,8.393,3.357,8.393,8.393v58.754
		C443.852,180.298,440.495,183.656,435.459,183.656z M339.774,166.869h87.292v-41.967H74.541v41.967h87.292
		c24.341-21.823,56.236-33.574,88.97-33.574S314.593,145.885,339.774,166.869z"/>
	<path d="M250.803,275.984c-5.036,0-8.393-3.357-8.393-8.393v-58.754c0-5.036,3.357-8.393,8.393-8.393s8.393,3.357,8.393,8.393
		v58.754C259.197,272.626,255.839,275.984,250.803,275.984z"/>
	<path d="M250.803,277.662c-2.518,0-4.197-0.839-5.875-2.518c-3.357-3.357-3.357-8.393,0-11.751l34.413-34.413
		c3.357-3.357,8.393-3.357,11.751,0c3.357,3.357,3.357,8.393,0,11.751l-34.413,34.413C255,276.823,253.321,277.662,250.803,277.662z
		"/>
</g>
</svg>